name GIL11_slow2.mot
datacolumns 153
datarows 4
range 1.24166656 1.26666653
endheader

                time	           pelvis_tx	           pelvis_ty	           pelvis_tz	         pelvis_tilt	         pelvis_list	     pelvis_rotation	       hip_flexion_r	     hip_adduction_r	      hip_rotation_r	        knee_angle_r	       ankle_angle_r	    subtalar_angle_r	         mtp_angle_r	       hip_flexion_l	     hip_adduction_l	      hip_rotation_l	        knee_angle_l	       ankle_angle_l	    subtalar_angle_l	         mtp_angle_l	    lumbar_extension	      lumbar_bending	     lumbar_rotation	     ground_force_vx	     ground_force_vy	     ground_force_vz	     ground_force_px	     ground_force_py	     ground_force_pz	     ground_force_vx	     ground_force_vy	     ground_force_vz	     ground_force_px	     ground_force_py	     ground_force_pz	     ground_torque_x	     ground_torque_y	     ground_torque_z	     ground_torque_x	     ground_torque_y	     ground_torque_z	    ground_marker_px	    ground_marker_py	    ground_marker_pz	    ground_marker_px	    ground_marker_py	    ground_marker_pz	    ground_marker_px	    ground_marker_py	    ground_marker_pz	    ground_marker_px	    ground_marker_py	    ground_marker_pz	    ground_marker_px	    ground_marker_py	    ground_marker_pz	    ground_marker_px	    ground_marker_py	    ground_marker_pz	    ground_marker_px	    ground_marker_py	    ground_marker_pz	    ground_marker_px	    ground_marker_py	    ground_marker_pz	    ground_marker_px	    ground_marker_py	    ground_marker_pz	    ground_marker_px	    ground_marker_py	    ground_marker_pz	    ground_marker_px	    ground_marker_py	    ground_marker_pz	    ground_marker_px	    ground_marker_py	    ground_marker_pz	    ground_marker_px	    ground_marker_py	    ground_marker_pz	    ground_marker_px	    ground_marker_py	    ground_marker_pz	    ground_marker_px	    ground_marker_py	    ground_marker_pz	    ground_marker_px	    ground_marker_py	    ground_marker_pz	    ground_marker_px	    ground_marker_py	    ground_marker_pz	    ground_marker_px	    ground_marker_py	    ground_marker_pz	    ground_marker_px	    ground_marker_py	    ground_marker_pz	    ground_marker_px	    ground_marker_py	    ground_marker_pz	    ground_marker_px	    ground_marker_py	    ground_marker_pz	    ground_marker_px	    ground_marker_py	    ground_marker_pz	    ground_marker_px	    ground_marker_py	    ground_marker_pz	    ground_marker_px	    ground_marker_py	    ground_marker_pz	    ground_marker_px	    ground_marker_py	    ground_marker_pz	    ground_marker_px	    ground_marker_py	    ground_marker_pz	    ground_marker_px	    ground_marker_py	    ground_marker_pz	    ground_marker_px	    ground_marker_py	    ground_marker_pz	    ground_marker_px	    ground_marker_py	    ground_marker_pz	    ground_marker_px	    ground_marker_py	    ground_marker_pz	    ground_marker_px	    ground_marker_py	    ground_marker_pz	    ground_marker_px	    ground_marker_py	    ground_marker_pz	    ground_marker_px	    ground_marker_py	    ground_marker_pz	    ground_marker_px	    ground_marker_py	    ground_marker_pz	    ground_marker_px	    ground_marker_py	    ground_marker_pz	    ground_marker_px	    ground_marker_py	    ground_marker_pz	    ground_marker_px	    ground_marker_py	    ground_marker_pz	
          1.24166656	          2.22614479	          0.87740588	         -0.23482367	         -5.69024849	         -0.66296929	          3.34827924	          3.16698456	          3.75347590	          7.11295462	         -4.00673962	          6.05562925	          0.00000000	          0.00000000	         28.33272552	         -5.34129190	         10.98247242	        -43.71748352	          2.54734206	          0.00000000	          0.00000000	          0.31394875	         -3.44648767	          1.45466125	         -3.91419208	        575.81326278	        -26.72610868	          2.14920972	          0.00000000	         -0.18250247	          0.00000000	          0.00000000	          0.00000000	          1.70235645	          0.00000000	         -0.35041309	          0.00000000	          1.50579663	          0.00000000	          0.00000000	          0.00000000	          0.00000000	          2.14512396	          0.82028723	         -0.23230782	          2.14113569	          0.80508858	         -0.15411685	          2.12715054	          0.80608827	         -0.30559695	          2.12343287	          0.43958923	         -0.17959233	          2.27749491	          0.43951601	         -0.35420689	          2.07917261	          0.06446478	         -0.20135377	          2.14587355	          0.11469316	         -0.32604596	          2.22614479	          0.87740588	         -0.23482367	          2.23317695	          0.87660426	         -0.11615422	          2.21911263	          0.87820745	         -0.35349312	          2.03442240	          0.94305980	         -0.19472431	          2.02647948	          0.93689430	         -0.24956281	          2.13382435	          0.43512091	         -0.12270609	          2.28228951	          0.44904250	         -0.41121793	          2.11429787	          0.44003454	         -0.22746067	          2.31318426	          0.45122615	         -0.29547665	          2.06675839	          0.06372409	         -0.16333625	          2.12293100	          0.12120575	         -0.35815850	          2.08885598	          0.07418538	         -0.23451287	          2.16678095	          0.11694088	         -0.30673644	          2.09643388	          1.37528312	         -0.22151953	          2.22853303	          1.31752586	         -0.18299222	          2.21899629	          1.31209779	         -0.28898370	          2.22058272	          1.31120729	         -0.23506510	          2.26205206	          1.24315929	         -0.23907094	          2.28537011	          0.56440037	         -0.20415564	          2.27206612	          0.58967674	         -0.49066913	          2.23260379	          0.61681181	         -0.13819760	          2.20187855	          0.60596246	         -0.42340347	          2.21425247	          0.53115606	         -0.13926640	          2.24628091	          0.52997315	         -0.42024210	          2.07061291	          0.13712442	         -0.08747454	          2.27808142	          0.19357935	         -0.35634944	          2.07163382	          0.14805432	         -0.12981457	          2.23923731	          0.20773052	         -0.35187578	          2.17867947	          0.03632091	         -0.17544979	          2.22059441	          0.06208267	         -0.38293570	
          1.24999988	          2.23176908	          0.87692541	         -0.23483789	         -5.78322601	         -0.54298133	          3.29781890	          2.90225506	          3.70630145	          6.78763962	         -4.12119150	          6.51865864	          0.00000000	          0.00000000	         28.98192978	         -5.16152811	         10.36856365	        -42.30427551	          2.65085578	          0.00000000	          0.00000000	          0.30057639	         -3.60511732	          1.54640090	         -2.41199410	        577.91888047	        -26.06640840	          2.15169141	          0.00000000	         -0.18244070	          0.00000000	          0.00000000	          0.00000000	          1.70290515	          0.00000000	         -0.35062103	          0.00000000	          1.64002771	          0.00000000	          0.00000000	          0.00000000	          0.00000000	          2.15051389	          0.81981027	         -0.23231328	          2.14652443	          0.80460644	         -0.15438160	          2.13276482	          0.80589002	         -0.30588022	          2.12660551	          0.43934128	         -0.18010852	          2.28691721	          0.44063413	         -0.35390532	          2.07936764	          0.06448442	         -0.20172226	          2.16666198	          0.11050650	         -0.32793117	          2.23176908	          0.87692541	         -0.23483789	          2.23862767	          0.87590730	         -0.11610733	          2.22491074	          0.87794352	         -0.35356843	          2.04003763	          0.94285131	         -0.19495669	          2.03223372	          0.93674374	         -0.24975611	          2.13656569	          0.43478647	         -0.12315200	          2.29120564	          0.44994977	         -0.41099152	          2.11660671	          0.44190699	         -0.23047067	          2.32102084	          0.45298764	         -0.29425824	          2.06698275	          0.06385241	         -0.16369314	          2.14314914	          0.11657048	         -0.35971776	          2.08827066	          0.07438532	         -0.23514965	          2.18763995	          0.11306621	         -0.30898163	          2.10272455	          1.37505424	         -0.22149611	          2.23498702	          1.31692934	         -0.18330464	          2.22539616	          1.31141853	         -0.28935763	          2.22688365	          1.31065071	         -0.23532683	          2.26834226	          1.24244630	         -0.23936199	          2.28968120	          0.56319910	         -0.20350504	          2.27889013	          0.58992982	         -0.49093181	          2.23664427	          0.61590147	         -0.13752799	          2.20894861	          0.60599053	         -0.42371181	          2.21671581	          0.53006989	         -0.13981751	          2.25372410	          0.53007281	         -0.41978049	          2.07149029	          0.13731028	         -0.08783910	          2.29568768	          0.19435522	         -0.35876477	          2.07205057	          0.14817934	         -0.13024051	          2.25643659	          0.20704128	         -0.35348779	          2.17878890	          0.03639193	         -0.17554475	          2.24262834	          0.06132330	         -0.38605273	
          1.25833321	          2.23748755	          0.87638974	         -0.23487562	         -5.87123680	         -0.43532443	          3.26392817	          2.62078857	          3.66814566	          6.40567827	         -4.21589756	          6.94337082	          0.00000000	          0.00000000	         29.59406662	         -4.99420118	          9.73627377	        -40.87009048	          2.71559954	          0.00000000	          0.00000000	          0.16786106	         -3.71192360	          1.57553339	         -0.80151630	        580.46487443	        -25.56228785	          2.15412427	          0.00000000	         -0.18239786	          0.00000000	          0.00000000	          0.00000000	          1.70362292	          0.00000000	         -0.35084744	          0.00000000	          1.75918689	          0.00000000	          0.00000000	          0.00000000	          0.00000000	          2.15637970	          0.81968904	         -0.23241299	          2.15204048	          0.80407214	         -0.15463276	          2.13845563	          0.80562025	         -0.30614468	          2.12982178	          0.43910617	         -0.18061371	          2.29616523	          0.44164893	         -0.35364681	          2.07964945	          0.06456327	         -0.20206207	          2.18743563	          0.10658379	         -0.32996139	          2.23748755	          0.87638974	         -0.23487562	          2.24421358	          0.87516952	         -0.11606022	          2.23076153	          0.87760991	         -0.35369101	          2.04568768	          0.94259828	         -0.19526741	          2.03802228	          0.93653476	         -0.25001445	          2.13931179	          0.43446860	         -0.12358362	          2.29991746	          0.45073491	         -0.41080767	          2.11906004	          0.44368693	         -0.23259218	          2.32998013	          0.45450976	         -0.29396886	          2.06724286	          0.06404775	         -0.16403826	          2.16340280	          0.11215680	         -0.36144736	          2.08839488	          0.07448438	         -0.23563686	          2.20865417	          0.10998861	         -0.31115666	          2.10936522	          1.37496984	         -0.22129753	          2.24142981	          1.31613243	         -0.18390730	          2.23190355	          1.31064451	         -0.28953612	          2.23320651	          1.31008160	         -0.23560470	          2.27449107	          1.24148619	         -0.23970501	          2.29400539	          0.56195760	         -0.20272453	          2.28554940	          0.58998162	         -0.49119890	          2.24128938	          0.61496294	         -0.13703808	          2.21592450	          0.60570163	         -0.42382044	          2.21967459	          0.52912861	         -0.14016968	          2.26138616	          0.53020108	         -0.41963491	          2.07228827	          0.13748039	         -0.08821915	          2.31312466	          0.19528903	         -0.36116081	          2.07271075	          0.14814073	         -0.13066494	          2.27341890	          0.20697901	         -0.35544768	          2.17888331	          0.03649195	         -0.17566282	          2.26458955	          0.06078638	         -0.38906926	
          1.26666653	          2.24328208	          0.87581551	         -0.23494679	         -5.95357704	         -0.34033507	          3.24283051	          2.32688141	          3.63567901	          5.99542141	         -4.30148649	          7.33787155	          0.00000000	          0.00000000	         30.16872406	         -4.84082556	          9.09381104	        -39.41990662	          2.73252010	          0.00000000	          0.00000000	          0.00659022	         -3.79507327	          1.73570740	          0.83679399	        583.14868708	        -25.28984145	          2.15654980	          0.00000000	         -0.18235777	          0.00000000	          0.00000000	          0.00000000	          1.70454895	          0.00000000	         -0.35107104	          0.00000000	          1.86055652	          0.00000000	          0.00000000	          0.00000000	          0.00000000	          2.16213989	          0.81937909	         -0.23254225	          2.15766263	          0.80350333	         -0.15488341	          2.14421010	          0.80529273	         -0.30640450	          2.13309526	          0.43888387	         -0.18109283	          2.30523586	          0.44256106	         -0.35344404	          2.07998896	          0.06469689	         -0.20236899	          2.20814633	          0.10297358	         -0.33211076	          2.24328208	          0.87581551	         -0.23494679	          2.24990940	          0.87441063	         -0.11603072	          2.23665476	          0.87722045	         -0.35386285	          2.05138087	          0.94231391	         -0.19564126	          2.04384947	          0.93626827	         -0.25033283	          2.14210200	          0.43417242	         -0.12399044	          2.30843282	          0.45140234	         -0.41067699	          2.12184954	          0.44459936	         -0.23265098	          2.33870554	          0.45491907	         -0.29510617	          2.06751394	          0.06430659	         -0.16436613	          2.18366194	          0.10801202	         -0.36333790	          2.08905840	          0.07423650	         -0.23598039	          2.22987199	          0.10715444	         -0.31341526	          2.11626148	          1.37480617	         -0.22116002	          2.24785566	          1.31527770	         -0.18440838	          2.23813486	          1.30987132	         -0.28948653	          2.23955131	          1.30949223	         -0.23589268	          2.28040171	          1.24045718	         -0.24000587	          2.29831624	          0.56065863	         -0.20187891	          2.29206300	          0.58984798	         -0.49146500	          2.24649715	          0.61466169	         -0.13710952	          2.22272515	          0.60597110	         -0.42346933	          2.22316122	          0.52833205	         -0.13996634	          2.26855111	          0.53056175	         -0.41990188	          2.07299614	          0.13763918	         -0.08859962	          2.33038020	          0.19638683	         -0.36347234	          2.07361078	          0.14821754	         -0.13135196	          2.29040742	          0.20651500	         -0.35767657	          2.17894888	          0.03661439	         -0.17579080	          2.28647709	          0.06046725	         -0.39194641	
